<svg id="Layer_1" data-name="Layer 1" xmlns="http://www.w3.org/2000/svg" viewBox="0 0 512 512"><title>imdb-glyph</title><rect x="106.67" y="192" width="32" height="117.33" fill="#434040"/><polygon points="176.34 243.46 188.65 309.33 206.57 309.33 218.55 243.46 218.55 309.33 243.32 309.33 243.32 192 203.99 192 197.26 247.34 187.54 192 150.2 192 150.2 309.33 176.34 309.33 176.34 243.46" fill="#434040"/><path d="M291.1,192H258.65V309.33h32.63c18.55,0,24.77-2,29.93-6.11s7.76-9.74,7.76-17.06v-71q0-11.79-8.28-17.47C315.13,193.89,310.45,192,291.1,192Zm6.71,92.72c0,5.55-6.26,4.8-11.22,4.8V210.72c5,0,11.22-.54,11.22,5.18Z" fill="#434040"/><path d="M387.37,210.72c-8.09-.39-16.43,4.82-19.43,8.13V192H338.25V309.33h24s1.83-7,3.85-6.12,12.33,5.18,19.43,5.18,10-.46,13.42-1.93c4.24-2.79,6.38-6.57,6.38-11.36V226.86C406,217,395.46,211.09,387.37,210.72Zm-11.28,78.33c0,2.89-1.34,4.91-4,4.91s-4.14-2-4.14-4.91l0-59.26c0-2.77,1.38-4.18,4.12-4.18s4.06,1.44,4.06,4.35Z" fill="#434040"/><path d="M490.67,5.1A16.25,16.25,0,0,1,506.9,21.33V490.67a16.25,16.25,0,0,1-16.23,16.23H21.33A16.25,16.25,0,0,1,5.1,490.67V21.33A16.25,16.25,0,0,1,21.33,5.1H490.67m0-5.1H21.33A21.33,21.33,0,0,0,0,21.33V490.67A21.33,21.33,0,0,0,21.33,512H490.67A21.33,21.33,0,0,0,512,490.67V21.33A21.33,21.33,0,0,0,490.67,0Z" fill="#434040"/></svg>